<svg width="273" height="60" viewBox="0 0 273 60" fill="none" xmlns="http://www.w3.org/2000/svg">
<path d="M21.504 44.648V49H3.2V6.44H7.616V44.648H21.504ZM38.061 49.256C35.757 49.256 33.6237 48.7013 31.661 47.592C29.741 46.44 28.205 44.904 27.053 42.984C25.901 41.0213 25.325 38.888 25.325 36.584V17H29.741V36.584C29.741 38.0773 30.1037 39.464 30.829 40.744C31.597 42.024 32.621 43.048 33.901 43.816C35.181 44.5413 36.5677 44.904 38.061 44.904C39.5543 44.904 40.941 44.5413 42.221 43.816C43.501 43.048 44.5037 42.024 45.229 40.744C45.997 39.464 46.381 38.0773 46.381 36.584V17H50.733V48.68H46.381V45.608C45.3143 46.8027 44.0557 47.72 42.605 48.36C41.197 48.9573 39.6823 49.256 38.061 49.256ZM84.9435 43.624C83.4075 45.416 81.5728 46.824 79.4395 47.848C77.3488 48.8293 75.0875 49.32 72.6555 49.32C69.7542 49.32 67.0662 48.5947 64.5915 47.144C62.1168 45.6933 60.1542 43.7307 58.7035 41.256C57.2528 38.7813 56.5275 36.0933 56.5275 33.192C56.5275 30.2907 57.2528 27.6027 58.7035 25.128C60.1542 22.6533 62.1168 20.6907 64.5915 19.24C67.0662 17.7893 69.7542 17.064 72.6555 17.064C75.0875 17.064 77.3488 17.576 79.4395 18.6C81.5728 19.5813 83.4075 20.968 84.9435 22.76L81.0395 25C79.9728 23.8907 78.7142 23.0373 77.2635 22.44C75.8128 21.8 74.2768 21.48 72.6555 21.48C70.5222 21.48 68.5595 22.0133 66.7675 23.08C64.9755 24.104 63.5462 25.512 62.4795 27.304C61.4128 29.096 60.8795 31.0587 60.8795 33.192C60.8795 35.3253 61.4128 37.288 62.4795 39.08C63.5462 40.872 64.9755 42.3013 66.7675 43.368C68.5595 44.392 70.5222 44.904 72.6555 44.904C74.2768 44.904 75.8128 44.6053 77.2635 44.008C78.7142 43.368 79.9728 42.4933 81.0395 41.384L84.9435 43.624ZM122.218 17C124.351 17 126.314 17.5333 128.106 18.6C129.898 19.624 131.306 21.0533 132.33 22.888C133.397 24.68 133.93 26.6427 133.93 28.776V49H129.578V28.776C129.578 26.728 128.853 25 127.402 23.592C125.951 22.1413 124.223 21.416 122.218 21.416C120.17 21.416 118.421 22.1413 116.97 23.592C115.562 25 114.858 26.7067 114.858 28.712V28.776V49H110.442V28.712C110.442 26.7067 109.717 25 108.266 23.592C106.815 22.1413 105.087 21.416 103.082 21.416C101.077 21.416 99.3487 22.1627 97.898 23.656C96.4473 25.1067 95.722 26.856 95.722 28.904V49H91.37V17.832H95.722V20.328C96.5753 19.304 97.6633 18.4933 98.986 17.896C100.351 17.2987 101.717 17 103.082 17C105.002 17 106.794 17.448 108.458 18.344C110.165 19.24 111.551 20.4347 112.618 21.928C113.727 20.4347 115.114 19.24 116.778 18.344C118.485 17.448 120.298 17 122.218 17ZM172.627 17.832V49H168.211V43.112C165.267 47.2507 161.342 49.32 156.435 49.32C153.491 49.32 150.782 48.616 148.307 47.208C145.833 45.7573 143.87 43.7947 142.419 41.32C141.011 38.8453 140.307 36.1573 140.307 33.256C140.307 30.312 141.011 27.6027 142.419 25.128C143.87 22.6533 145.833 20.712 148.307 19.304C150.782 17.8533 153.491 17.128 156.435 17.128C159.465 17.128 161.939 17.768 163.859 19.048C165.822 20.2853 167.273 21.6293 168.211 23.08V17.832H172.627ZM156.435 44.968C158.569 44.968 160.531 44.456 162.323 43.432C164.115 42.3653 165.523 40.936 166.547 39.144C167.614 37.352 168.147 35.3893 168.147 33.256C168.147 31.1227 167.614 29.16 166.547 27.368C165.523 25.5333 164.115 24.104 162.323 23.08C160.531 22.0133 158.569 21.48 156.435 21.48C154.302 21.48 152.318 22.0133 150.483 23.08C148.691 24.104 147.262 25.5333 146.195 27.368C145.171 29.16 144.659 31.1227 144.659 33.256C144.659 35.3893 145.171 37.352 146.195 39.144C147.262 40.936 148.691 42.3653 150.483 43.432C152.318 44.456 154.302 44.968 156.435 44.968ZM192.322 17C194.626 17 196.738 17.576 198.658 18.728C200.621 19.8373 202.178 21.3733 203.33 23.336C204.482 25.256 205.058 27.368 205.058 29.672V49H200.642V29.672C200.642 28.1787 200.258 26.8133 199.49 25.576C198.765 24.296 197.762 23.2933 196.482 22.568C195.202 21.8 193.815 21.416 192.322 21.416C190.829 21.416 189.442 21.8 188.162 22.568C186.882 23.2933 185.858 24.296 185.09 25.576C184.365 26.8133 184.002 28.1787 184.002 29.672V49H179.65V17.832H184.002V20.648C185.069 19.4533 186.306 18.5573 187.714 17.96C189.165 17.32 190.701 17 192.322 17ZM269.41 17.832V49H264.994V43.112C262.05 47.2507 258.125 49.32 253.218 49.32C250.274 49.32 247.565 48.616 245.09 47.208C242.615 45.7573 240.653 43.7947 239.202 41.32C237.794 38.8453 237.09 36.1573 237.09 33.256C237.09 30.312 237.794 27.6027 239.202 25.128C240.653 22.6533 242.615 20.712 245.09 19.304C247.565 17.8533 250.274 17.128 253.218 17.128C256.247 17.128 258.722 17.768 260.642 19.048C262.605 20.2853 264.055 21.6293 264.994 23.08V17.832H269.41ZM253.218 44.968C255.351 44.968 257.314 44.456 259.106 43.432C260.898 42.3653 262.306 40.936 263.33 39.144C264.397 37.352 264.93 35.3893 264.93 33.256C264.93 31.1227 264.397 29.16 263.33 27.368C262.306 25.5333 260.898 24.104 259.106 23.08C257.314 22.0133 255.351 21.48 253.218 21.48C251.085 21.48 249.101 22.0133 247.266 23.08C245.474 24.104 244.045 25.5333 242.978 27.368C241.954 29.16 241.442 31.1227 241.442 33.256C241.442 35.3893 241.954 37.352 242.978 39.144C244.045 40.936 245.474 42.3653 247.266 43.432C249.101 44.456 251.085 44.968 253.218 44.968Z" fill="#1F2937"/>
<path d="M232 2.82084L231.284 1L221.731 5.0922C221.515 5.18499 221.33 5.34275 221.2 5.54544C221.07 5.74814 221 5.98663 221 6.23064V17H222.887V6.72754L232 2.82084Z" fill="#1F2937"/>
<path d="M229.023 49H215.349L212 16H232L229.023 49Z" fill="#1F2937"/>
<path d="M233 16H211V18H233V16Z" fill="#1F2937"/>
</svg>
